<svg xmlns="http://www.w3.org/2000/svg" version="1.1" xmlns:xlink="http://www.w3.org/1999/xlink" width="512" height="512" x="0" y="0" viewBox="0 0 512 512" style="enable-background:new 0 0 512 512" xml:space="preserve" class=""><g><path d="M256 0C114.615 0 0 114.615 0 256s114.615 256 256 256 256-114.615 256-256S397.385 0 256 0zm133.059 161.936L343.591 379a16.007 16.007 0 0 1-25.177 9.593l-66.136-48.861-40.068 37.8a5.429 5.429 0 0 1-7.74-.294l-.861-.946 6.962-67.375 125.484-114.651a3.358 3.358 0 0 0-4.061-5.317l-160.479 101.57-69.115-23.212a9.393 9.393 0 0 1-.32-17.694L372.5 147.744a12.441 12.441 0 0 1 16.559 14.192z" fill="#09001b" opacity="1" data-original="#000000" class=""></path></g></svg>